# xmcd
#
# Track frame offsets:
#	150
#	20514
#	37403
#	58896
#	77500
#	98907
#	120332
#	140868
#	159901
#	179308
#	199438
#	218024
#	240611
#	271915
#
# Disc length: 3920 seconds
#
# Revision: 1
# Processed by: cddbd v1.5.2PL0 Copyright (c) Steve Scherf et al.
# Submitted via: audiograbber 1.83.01
#
DISCID=c80f4e0e
DTITLE=Felton Pilate - Nothing but love spoken here
DYEAR=1900
DGENRE=
TTITLE0=Nothing but love spoken here
TTITLE1=Leading different lives
TTITLE2=Devotion
TTITLE3=In time
TTITLE4=Takin´ it from the top
TTITLE5=Only for you
TTITLE6=Watch you
TTITLE7=Keepin´ you to your promise
TTITLE8=Yours for life
TTITLE9=Be my baby
TTITLE10=Always come back to you
TTITLE11=Nothing but love spoken here (remix #1)
TTITLE12=Nothing but love spoken here (remix #2)
TTITLE13=Nothing but love spoken here (remix #3)
EXTD=
EXTT0=
EXTT1=
EXTT2=
EXTT3=
EXTT4=
EXTT5=
EXTT6=
EXTT7=
EXTT8=
EXTT9=
EXTT10=
EXTT11=
EXTT12=
EXTT13=
PLAYORDER=
